<?xml version="1.0" encoding="iso-8859-1"?>
<!-- Generator: Adobe Illustrator 18.0.0, SVG Export Plug-In . SVG Version: 6.00 Build 0)  -->
<!DOCTYPE svg PUBLIC "-//W3C//DTD SVG 1.1//EN" "http://www.w3.org/Graphics/SVG/1.1/DTD/svg11.dtd">
<svg version="1.1" id="Capa_1" xmlns="http://www.w3.org/2000/svg" xmlns:xlink="http://www.w3.org/1999/xlink" x="0px" y="0px"
	 viewBox="0 0 297 297" style="enable-background:new 0 0 297 297;" xml:space="preserve">
<g>
	<path d="M118.978,51.526c1.651,4.011,5.523,6.435,9.607,6.435c1.316,0,2.656-0.253,3.949-0.785
		c5.304-2.183,7.833-8.252,5.65-13.556l-0.243-0.591c-2.183-5.304-8.252-7.833-13.556-5.65c-5.304,2.183-7.833,8.252-5.65,13.556
		L118.978,51.526z"/>
	<path d="M212.121,57.176c1.293,0.532,2.632,0.785,3.949,0.785c4.083,0,7.956-2.425,9.607-6.435l0.243-0.591
		c2.183-5.304-0.346-11.372-5.65-13.556c-5.299-2.181-11.372,0.347-13.556,5.65l-0.243,0.591
		C204.288,48.924,206.817,54.993,212.121,57.176z"/>
	<path d="M66.198,114.778l0.592,0.243c1.292,0.531,2.628,0.783,3.943,0.783c4.086,0,7.96-2.428,9.609-6.441
		c2.18-5.305-0.353-11.372-5.658-13.552l-0.592-0.243c-5.305-2.181-11.371,0.354-13.552,5.658
		C58.36,106.531,60.893,112.599,66.198,114.778z"/>
	<path d="M273.922,115.804c1.318,0,2.66-0.253,3.955-0.787l0.59-0.243c5.302-2.186,7.828-8.257,5.642-13.56
		c-2.186-5.301-8.257-7.827-13.56-5.642l-0.59,0.243c-5.302,2.186-7.828,8.257-5.642,13.56
		C265.97,113.383,269.84,115.804,273.922,115.804z"/>
	<path d="M286.615,138.779h-44.294c0.501,3.391,0.769,6.857,0.769,10.385c0,3.528-0.268,6.994-0.769,10.385h44.294
		c5.735,0,10.385-4.65,10.385-10.385C297,143.428,292.35,138.779,286.615,138.779z"/>
	<path d="M248.656,106.503l-15.582,6.416c3.533,5.899,6.228,12.353,7.928,19.197l15.563-6.408c5.303-2.183,7.832-8.253,5.649-13.557
		C260.029,106.848,253.96,104.321,248.656,106.503z"/>
	<path d="M229.144,107.034l31.341-31.342c4.056-4.055,4.056-10.631,0-14.687c-4.056-4.055-10.63-4.055-14.687,0l-31.34,31.341
		C220.04,96.499,224.993,101.451,229.144,107.034z"/>
	<path d="M215.306,73.015c2.206-5.295-0.297-11.374-5.591-13.58c-5.296-2.208-11.375,0.297-13.58,5.591l-6.471,15.531
		c6.835,1.728,13.278,4.45,19.163,8.008L215.306,73.015z"/>
	<path d="M82.598,111.776c-2.206,5.294,0.297,11.374,5.592,13.579l15.53,6.471c1.728-6.835,4.45-13.278,8.008-19.163l-15.551-6.479
		C90.885,103.977,84.803,106.482,82.598,111.776z"/>
	<path d="M182.712,79.169V34.875c0-5.735-4.65-10.385-10.385-10.385c-5.735,0-10.385,4.65-10.385,10.385v44.294
		c3.391-0.501,6.857-0.769,10.385-0.769C175.855,78.401,179.321,78.668,182.712,79.169z"/>
	<path d="M115.511,107.034c4.151-5.583,9.103-10.536,14.687-14.687l-31.341-31.34c-4.057-4.054-10.632-4.054-14.687,0
		c-4.055,4.056-4.055,10.631,0,14.687L115.511,107.034z"/>
	<path d="M129.667,72.834l6.416,15.583c5.899-3.533,12.352-6.228,19.197-7.927l-6.407-15.562c-2.184-5.304-8.251-7.834-13.556-5.65
		C130.013,61.462,127.484,67.531,129.667,72.834z"/>
	<path d="M227.755,182.593c-8.623,0-17.009,2.459-24.252,7.112c-1.989,1.278-4.474,1.506-6.661,0.62
		c-2.189-0.887-3.811-2.785-4.347-5.085c-7.533-32.309-35.987-54.874-69.195-54.874c-30.148,0-57.102,19.113-67.074,47.56
		c-1.094,3.125-4.159,5.114-7.46,4.84c-1.405-0.117-2.65-0.173-3.808-0.173C20.168,182.593,0,202.761,0,227.551
		s20.168,44.958,44.958,44.958h182.797c24.79,0,44.958-20.168,44.958-44.958S252.546,182.593,227.755,182.593z"/>
	<path d="M172.327,92.939c-18.566,0-35.045,9.056-45.287,22.972c18.125,0.8,35.696,7.392,49.842,18.768
		c12.442,10.005,21.873,23.378,27.152,38.307c6.683-2.911,13.856-4.557,21.196-4.867c2.133-5.928,3.321-12.302,3.321-18.956
		C228.551,118.161,203.329,92.939,172.327,92.939z"/>
</g>
<g>
</g>
<g>
</g>
<g>
</g>
<g>
</g>
<g>
</g>
<g>
</g>
<g>
</g>
<g>
</g>
<g>
</g>
<g>
</g>
<g>
</g>
<g>
</g>
<g>
</g>
<g>
</g>
<g>
</g>
</svg>
