<?xml version="1.0" encoding="iso-8859-1"?>
<!-- Generator: Adobe Illustrator 18.0.0, SVG Export Plug-In . SVG Version: 6.00 Build 0)  -->
<!DOCTYPE svg PUBLIC "-//W3C//DTD SVG 1.1//EN" "http://www.w3.org/Graphics/SVG/1.1/DTD/svg11.dtd">
<svg version="1.1" id="Capa_1" xmlns="http://www.w3.org/2000/svg" xmlns:xlink="http://www.w3.org/1999/xlink" x="0px" y="0px"
	 viewBox="0 0 297 297" style="enable-background:new 0 0 297 297;" xml:space="preserve">
<g>
	<path d="M287,164.469H143.668c19.614-16.135,32.144-40.585,32.144-67.906c0-48.472-39.435-87.906-87.906-87.906S0,48.091,0,96.563
		c0,27.322,12.53,51.771,32.144,67.906H10c-5.522,0-10,4.478-10,10v86.563c0,5.522,4.478,10,10,10h7.312v7.313
		c0,5.522,4.478,10,10,10c5.522,0,10-4.478,10-10v-7.313h222.375v7.313c0,5.522,4.478,10,10,10c5.522,0,10-4.478,10-10v-7.313H287
		c5.522,0,10-4.478,10-10v-86.563C297,168.946,292.522,164.469,287,164.469z M20,96.563c0-37.443,30.463-67.906,67.906-67.906
		s67.906,30.463,67.906,67.906s-30.463,67.906-67.906,67.906S20,134.006,20,96.563z M20,184.469h257v66.563H20V184.469z"/>
	<path d="M44.625,236.406H148.5c5.522,0,10-4.478,10-10s-4.478-10-10-10H44.625c-5.522,0-10,4.478-10,10
		S39.103,236.406,44.625,236.406z"/>
	<path d="M217.75,236.406h34.625c5.522,0,10-4.478,10-10s-4.478-10-10-10H217.75c-5.522,0-10,4.478-10,10
		S212.228,236.406,217.75,236.406z"/>
	<path d="M87.906,70.981c-14.105,0-25.581,11.476-25.581,25.581s11.476,25.581,25.581,25.581s25.581-11.476,25.581-25.581
		S102.012,70.981,87.906,70.981z M87.906,102.144c-3.077,0-5.581-2.504-5.581-5.581s2.504-5.581,5.581-5.581
		s5.581,2.504,5.581,5.581S90.983,102.144,87.906,102.144z"/>
</g>
<g>
</g>
<g>
</g>
<g>
</g>
<g>
</g>
<g>
</g>
<g>
</g>
<g>
</g>
<g>
</g>
<g>
</g>
<g>
</g>
<g>
</g>
<g>
</g>
<g>
</g>
<g>
</g>
<g>
</g>
</svg>
